<?xml version="1.0" encoding="utf-8"?>
<!-- Generator: Adobe Illustrator 22.0.1, SVG Export Plug-In . SVG Version: 6.00 Build 0)  -->
<svg version="1.1" id="Layer_1" xmlns="http://www.w3.org/2000/svg" xmlns:xlink="http://www.w3.org/1999/xlink" x="0px" y="0px"
	 viewBox="0 0 172.6 200" style="enable-background:new 0 0 172.6 200;" xml:space="preserve">
<style type="text/css">
	.st0{fill:#EE6557;}
	.st1{clip-path:url(#SVGID_2_);fill:#BE5146;}
	.st2{fill:#F5F5F5;}
	.st3{fill:#BE5146;}
</style>
<g id="base">
</g>
<g id="Layer_2_1_">
</g>
<g id="Layer_3">
	<g>
		<polyline class="st0" points="173,150 86.5,200 0,150 0,50 86.5,0 173,50 173,150 		"/>
		<g>
			<g>
				<defs>
					<polyline id="SVGID_1_" points="173,150 86.5,200 0,150 0,50 86.5,0 173,50 173,150 					"/>
				</defs>
				<clipPath id="SVGID_2_">
					<use xlink:href="#SVGID_1_"  style="overflow:visible;"/>
				</clipPath>
				<polygon class="st1" points="28.6,58.3 83.6,58.3 90.6,65.3 90.6,58.3 145.6,58.3 172.6,85.3 172.6,150.7 105.6,189.4 
					31.6,115.4 31.6,104.3 64.6,104.3 28.6,68.3 				"/>
			</g>
		</g>
		<polygon class="st2" points="101.6,148.9 90.3,148.9 90.3,51.1 144.8,51.1 144.8,61.2 101.6,61.2 101.6,97 142.2,97 142.2,107.1 
			101.6,107.1 		"/>
		<polygon class="st2" points="71.7,107.1 31.2,107.1 31.2,97 71.7,97 71.7,61.2 28.6,61.2 28.6,51.1 83.1,51.1 83.1,148.9 
			71.7,148.9 		"/>
	</g>
	<path class="st3" d="M218.7,169.2"/>
</g>
</svg>
